<?xml version="1.0" standalone="no"?>
<!DOCTYPE svg PUBLIC "-//W3C//DTD SVG 20010904//EN"
 "http://www.w3.org/TR/2001/REC-SVG-20010904/DTD/svg10.dtd">
<svg version="1.0" xmlns="http://www.w3.org/2000/svg"
 width="192.000000pt" height="192.000000pt" viewBox="0 0 192.000000 192.000000"
 preserveAspectRatio="xMidYMid meet">

<g transform="translate(0.000000,192.000000) scale(0.100000,-0.100000)"
fill="#000000" stroke="none">
<path d="M791 1686 c37 -8 81 -22 98 -31 52 -26 111 -85 137 -137 15 -30 31
-48 42 -48 9 0 13 3 7 8 -5 4 -19 25 -30 47 -28 55 -97 123 -152 147 -25 11
-73 22 -107 24 l-61 4 66 -14z"/>
<path d="M676 1654 c-68 -21 -147 -101 -171 -173 -9 -29 -13 -56 -9 -61 5 -5
35 -13 67 -19 79 -14 194 -78 175 -96 -3 -3 -22 8 -43 25 -183 146 -464 -6
-442 -240 6 -70 34 -126 86 -173 66 -60 95 -67 255 -65 l141 2 -140 6 c-95 4
-151 11 -175 21 -122 55 -178 193 -131 321 37 96 140 168 241 168 46 0 121
-28 161 -59 39 -32 63 -39 74 -20 20 32 -112 115 -197 125 -56 6 -58 7 -51 33
53 224 347 269 474 73 19 -29 28 -38 24 -22 -18 63 -95 133 -171 156 -59 17
-105 17 -168 -2z"/>
<path d="M1185 1503 c157 -19 251 -93 290 -227 10 -34 24 -59 33 -63 85 -26
130 -63 156 -125 38 -91 -2 -191 -96 -239 -32 -16 -60 -19 -208 -19 -99 0
-179 -4 -191 -10 -17 -10 -19 -22 -19 -116 0 -103 1 -106 29 -135 30 -30 74
-39 87 -17 4 6 3 8 -3 5 -16 -10 -72 13 -83 33 -6 10 -10 61 -10 113 l0 95
178 4 c192 4 229 13 285 66 50 47 70 98 65 164 -6 83 -43 133 -131 176 -52 27
-67 39 -67 56 0 39 -50 124 -99 168 -57 51 -127 79 -196 77 -30 -1 -38 -3 -20
-6z"/>
<path d="M1091 1459 c-29 -10 -59 -16 -65 -12 -6 3 -3 -2 6 -12 16 -17 18 -17
55 0 56 27 144 31 200 10 55 -21 117 -75 143 -124 11 -20 19 -29 20 -20 0 27
-55 100 -100 130 -78 53 -164 62 -259 28z"/>
<path d="M898 1025 c2 -222 1 -256 -13 -261 -24 -9 -18 -24 10 -24 l25 0 0
270 c0 209 -3 270 -12 270 -10 0 -12 -56 -10 -255z"/>
<path d="M1018 1268 c9 -9 12 -79 12 -255 0 -207 -2 -244 -15 -249 -23 -9 -18
-26 8 -22 l22 3 3 268 2 267 -22 0 c-17 0 -19 -3 -10 -12z"/>
<path d="M1465 1190 c3 -5 18 -10 32 -10 38 0 90 -29 124 -69 29 -34 30 -34
16 -6 -19 39 -44 60 -90 80 -41 17 -91 20 -82 5z"/>
<path d="M768 1148 c9 -9 12 -84 12 -277 0 -331 2 -326 -122 -346 -24 -4 -39
-12 -43 -25 -19 -60 -111 -79 -164 -34 -29 24 -41 23 -23 -2 18 -26 60 -44
101 -44 40 0 49 5 87 45 33 36 48 45 75 45 41 0 74 21 94 60 12 24 15 80 15
310 l0 280 -22 0 c-17 0 -19 -3 -10 -12z"/>
<path d="M1148 1010 c3 -129 5 -151 20 -158 9 -4 94 -5 187 -2 l170 6 -178 2
-178 2 2 148 c1 116 -2 148 -12 150 -11 2 -13 -25 -11 -148z"/>
<path d="M262 959 c31 -56 90 -104 157 -130 72 -27 337 -42 329 -18 -4 11 -39
15 -159 19 -135 5 -159 8 -197 28 -47 25 -118 93 -127 123 -4 10 -11 19 -16
19 -6 0 0 -19 13 -41z"/>
<path d="M897 661 c3 -13 -1 -21 -14 -24 -12 -3 -9 -5 10 -6 22 -1 27 3 27 24
0 15 -6 25 -14 25 -9 0 -12 -7 -9 -19z"/>
<path d="M1023 667 c4 -10 -1 -20 -11 -26 -14 -9 -12 -10 11 -11 24 0 28 4 25
22 -2 12 -9 24 -17 26 -10 3 -12 0 -8 -11z"/>
<path d="M510 641 c0 -6 11 -11 24 -11 24 0 60 -29 87 -69 14 -23 18 -24 50
-13 19 6 23 10 9 7 -19 -3 -33 5 -65 40 -39 42 -105 71 -105 46z"/>
<path d="M1385 640 c-4 -6 5 -10 20 -10 16 0 38 -12 56 -29 64 -64 20 -161
-73 -161 -39 0 -57 12 -106 74 -8 10 -28 16 -51 16 -27 0 -46 7 -66 26 -15 14
-30 23 -32 20 -3 -3 9 -19 27 -36 24 -22 42 -30 69 -30 32 0 43 -6 69 -39 45
-56 88 -68 153 -41 63 26 84 117 39 166 -14 14 -39 33 -57 40 -39 17 -40 17
-48 4z"/>
<path d="M500 613 c-51 -19 -75 -77 -49 -124 14 -26 55 -42 77 -29 14 8 13 9
-9 10 -53 0 -79 69 -39 105 27 24 70 22 91 -4 10 -12 20 -18 23 -13 6 10 -30
52 -44 52 -4 0 -14 2 -22 4 -7 3 -20 2 -28 -1z"/>
<path d="M1375 612 c-56 -11 -83 -81 -50 -129 17 -25 63 -39 78 -24 8 8 3 11
-14 11 -51 0 -79 69 -41 102 34 30 60 31 88 3 29 -29 41 -28 25 3 -12 23 -56
40 -86 34z"/>
<path d="M64 543 c-4 -12 -13 -24 -23 -26 -9 -3 -2 -5 15 -6 25 -1 30 3 29 19
-2 29 -15 37 -21 13z"/>
<path d="M180 545 c8 -10 7 -16 -7 -24 -16 -9 -14 -10 10 -11 23 0 28 4 25 22
-2 11 -11 22 -21 24 -14 2 -16 -1 -7 -11z"/>
<path d="M303 534 l-21 -24 29 0 c22 0 29 5 29 19 0 30 -13 32 -37 5z"/>
<path d="M903 541 c-3 -11 -12 -22 -22 -24 -9 -3 -4 -5 12 -6 22 -1 27 3 27
24 0 30 -10 33 -17 6z"/>
<path d="M1029 555 c-1 -3 -2 -10 -3 -15 0 -6 -8 -15 -16 -20 -12 -8 -9 -10
13 -10 22 0 27 4 27 25 0 21 -17 37 -21 20z"/>
<path d="M1619 555 c-1 -3 -2 -10 -3 -15 0 -6 -8 -15 -16 -20 -12 -8 -9 -10
13 -10 22 0 27 4 27 25 0 21 -17 37 -21 20z"/>
<path d="M1743 542 c-3 -12 -12 -23 -22 -25 -9 -3 -1 -5 17 -6 25 -1 32 3 32
18 0 28 -20 37 -27 13z"/>
<path d="M1869 556 c-1 -3 -2 -11 -3 -17 0 -7 -10 -15 -21 -20 -16 -6 -14 -8
13 -8 25 -1 32 3 32 18 0 18 -18 40 -21 27z"/>
<path d="M897 420 c4 -14 0 -20 -11 -20 -10 0 -15 -4 -11 -9 3 -6 14 -9 25 -8
15 1 20 9 20 29 0 17 -5 28 -14 28 -9 0 -12 -7 -9 -20z"/>
<path d="M1020 425 c10 -12 9 -16 -4 -21 -24 -9 -19 -24 7 -20 32 4 38 56 6
56 -18 0 -19 -2 -9 -15z"/>
<path d="M897 300 c4 -14 0 -20 -11 -20 -10 0 -14 -4 -11 -10 3 -5 15 -10 26
-10 14 0 19 7 19 30 0 19 -5 30 -14 30 -9 0 -12 -7 -9 -20z"/>
<path d="M1020 305 c10 -12 9 -16 -4 -21 -24 -9 -19 -24 9 -24 21 0 25 5 25
30 0 24 -4 30 -21 30 -18 0 -19 -3 -9 -15z"/>
</g>
</svg>
